<svg version="1.1" id="Layer_1" xmlns="http://www.w3.org/2000/svg" xmlns:xlink="http://www.w3.org/1999/xlink" x="0px" y="0px"
	 width="100%" viewBox="0 0 768 768" enable-background="new 0 0 768 768" xml:space="preserve">
<path fill="#1ED760" opacity="1.000000" stroke="none" 
	d="
M362.000000,0.999998 
	C377.020905,1.000000 392.041779,1.000000 407.372559,1.415442 
	C408.362396,2.210447 409.013062,2.850631 409.726685,2.930812 
	C422.118561,4.323155 434.660522,4.884559 446.882019,7.167640 
	C464.307404,10.422857 481.715393,14.176559 498.742004,19.070290 
	C527.460022,27.324329 554.411682,39.913334 580.193726,55.020870 
	C606.345276,70.344894 630.326721,88.601807 651.939087,109.745758 
	C663.702759,121.254456 674.258240,134.033417 684.978699,146.564468 
	C699.387207,163.406448 711.207092,182.104523 721.705627,201.533478 
	C734.932922,226.012543 746.193359,251.424347 753.119812,278.492981 
	C756.795898,292.859741 760.236572,307.324951 762.853638,321.912506 
	C764.962646,333.668304 765.640259,345.678802 767.081726,357.560669 
	C767.188232,358.438446 768.336182,359.189850 769.000000,360.000000 
	C769.000000,376.354218 769.000000,392.708466 768.587280,409.360474 
	C767.786926,410.504486 767.161316,411.319885 767.046936,412.201599 
	C765.003906,427.958527 763.591919,443.821014 760.910583,459.466492 
	C755.225159,492.641296 744.234192,524.259827 729.113708,554.195557 
	C720.029175,572.181213 709.398193,589.537659 697.945801,606.130310 
	C687.634338,621.069946 676.076172,635.363770 663.562439,648.509399 
	C650.630432,662.094482 636.242676,674.379883 621.843628,686.461365 
	C602.597290,702.609985 581.082031,715.476807 558.812378,727.010986 
	C536.130188,738.758850 512.306519,747.726501 487.725403,754.552856 
	C475.811371,757.861450 463.727203,760.791382 451.541718,762.823242 
	C439.094269,764.898743 426.423859,765.625549 413.866425,767.075378 
	C412.850433,767.192688 411.952698,768.334351 411.000000,769.000000 
	C393.979095,769.000000 376.958221,769.000000 359.625519,768.585205 
	C358.634766,767.790405 357.984406,767.147278 357.272583,767.069946 
	C347.481201,766.005066 337.549133,765.708374 327.912170,763.862732 
	C310.003754,760.432983 292.067932,756.831299 274.502838,751.995972 
	C246.401321,744.260315 219.910675,732.449463 194.573746,717.967346 
	C167.959808,702.755371 143.342636,684.790588 121.362190,663.548340 
	C107.870033,650.509277 95.541992,636.179749 83.474106,621.773865 
	C67.353584,602.530273 54.437515,581.062683 43.005547,558.757812 
	C31.888113,537.066650 23.144016,514.405762 16.461771,490.950012 
	C9.315995,465.867157 4.459291,440.395203 2.921767,414.320526 
	C2.854507,413.179871 1.666139,412.105347 0.999999,411.000000 
	C1.000000,394.312439 1.000000,377.624878 1.415128,360.628784 
	C2.216452,359.474304 2.840222,358.658997 2.953581,357.777954 
	C5.002493,341.853851 6.386800,325.817474 9.122103,310.014313 
	C14.065248,281.455383 23.353254,254.126038 35.156139,227.717010 
	C44.560135,206.675522 55.940510,186.678467 69.046944,167.676041 
	C81.584427,149.498505 95.485817,132.411392 110.974533,116.728973 
	C120.705719,106.876106 131.286285,97.831825 141.794846,88.783737 
	C160.090027,73.031227 180.211975,59.803387 201.398193,48.377163 
	C232.078537,31.830549 264.241913,19.019608 298.495483,11.664138 
	C318.382141,7.393762 338.279877,3.648166 358.659851,2.917280 
	C359.794708,2.876581 360.887573,1.666035 362.000000,0.999998 
M387.365631,278.000244 
	C393.238525,278.661865 399.124512,279.224762 404.981812,280.003723 
	C422.172882,282.289948 439.513428,283.847778 456.496613,287.203217 
	C478.539917,291.558411 500.507690,296.619995 522.124207,302.734467 
	C553.543213,311.621613 583.380981,324.647491 611.704773,340.948914 
	C627.439758,350.004974 646.631531,346.848480 657.939880,331.523590 
	C668.373535,317.384125 667.859863,298.911407 654.876221,286.918762 
	C646.866028,279.520020 636.658325,274.209534 626.827209,269.145721 
	C614.082581,262.581177 601.006104,256.452759 587.576782,251.473663 
	C566.682800,243.727005 545.606262,236.276291 524.178894,230.213364 
	C495.752960,222.170181 466.803894,216.171951 437.357727,212.926224 
	C420.403656,211.057449 403.503815,208.626175 386.519958,207.120605 
	C372.694885,205.895050 358.784119,205.203079 344.905975,205.114044 
	C325.974426,204.992584 307.036591,205.615463 288.104034,206.036041 
	C282.669403,206.156769 277.222595,206.481873 271.818085,207.057816 
	C257.303406,208.604614 242.770538,210.064621 228.317032,212.077133 
	C215.058777,213.923203 201.819550,216.079605 188.710297,218.772751 
	C175.808655,221.423248 163.099930,225.000824 150.272430,228.026947 
	C129.511185,232.924728 117.302856,251.667618 122.032951,271.564301 
	C126.413048,289.988739 146.158295,301.824799 164.631546,297.124634 
	C175.376892,294.390717 186.022369,291.081665 196.909561,289.127838 
	C216.381134,285.633392 235.947342,282.532623 255.576538,280.092133 
	C271.574463,278.103088 287.716705,276.310120 303.804504,276.224304 
	C331.338318,276.077362 358.879639,277.333282 387.365631,278.000244 
M160.444931,411.108948 
	C165.147949,412.739197 169.925293,415.882965 174.537140,415.656494 
	C182.067062,415.286743 189.542786,412.930511 196.947433,411.043671 
	C230.411850,402.516205 264.457825,397.739471 298.885406,396.179108 
	C314.608704,395.466461 330.449249,396.156281 346.180664,397.121765 
	C363.883362,398.208191 381.597534,399.772461 399.167633,402.154663 
	C414.670532,404.256592 430.206451,406.913757 445.322083,410.874298 
	C464.830475,415.985809 484.103638,422.151794 503.168335,428.757751 
	C524.161682,436.032043 544.000000,445.932922 563.094177,457.383667 
	C570.285217,461.696106 577.666077,465.566345 587.118408,463.222107 
	C599.395325,460.177307 607.258606,453.198364 610.249390,441.189941 
	C612.853699,430.733002 610.679871,420.773163 602.112305,413.928070 
	C594.649231,407.965363 586.270386,402.959930 577.788818,398.495605 
	C550.007263,383.872711 521.217529,371.730103 491.114288,362.468811 
	C458.377502,352.397217 425.033966,345.540802 391.173431,341.158325 
	C374.535858,339.004974 357.717285,337.448059 340.959534,337.228119 
	C319.929352,336.952179 298.828186,337.650146 277.849579,339.184265 
	C258.741791,340.581604 239.608185,342.834229 220.760605,346.232849 
	C202.839294,349.464447 185.154663,354.241974 167.590805,359.145203 
	C154.672073,362.751648 147.101379,373.315369 146.999390,387.566406 
	C146.926804,397.709167 152.300568,404.883362 160.444931,411.108948 
M526.020203,560.513977 
	C530.844421,564.063782 536.179810,565.388184 542.205078,565.063721 
	C556.400940,564.299377 567.901367,547.677185 561.786743,533.501221 
	C558.404358,525.659546 551.578247,521.771057 544.535645,517.651062 
	C524.280945,505.801880 503.165253,495.905762 481.115143,487.974182 
	C450.760681,477.055481 419.694427,469.043030 387.501495,466.007965 
	C370.787567,464.432251 354.049377,462.719086 337.286285,462.176666 
	C321.883667,461.678223 306.426758,462.498322 291.005707,463.063354 
	C281.790588,463.401001 272.546173,463.960266 263.407684,465.139008 
	C248.001175,467.126221 232.612823,469.373077 217.321533,472.098206 
	C204.162003,474.443451 190.944366,476.903381 178.129532,480.614746 
	C165.984116,484.132233 161.253174,496.128265 163.277390,507.251984 
	C165.284531,518.281860 176.878845,526.502014 187.934753,524.978394 
	C196.650162,523.777283 205.208405,521.476196 213.901062,520.060425 
	C229.390884,517.537781 244.875107,514.823303 260.462311,513.098328 
	C277.632996,511.198120 294.897888,509.763916 312.157593,509.171295 
	C326.726501,508.671082 341.370300,509.261871 355.937469,510.113220 
	C369.868683,510.927429 383.901794,511.820190 397.603027,514.278503 
	C414.073883,517.233643 430.320465,521.580322 446.522675,525.860046 
	C474.523193,533.256104 500.392456,545.715759 526.020203,560.513977 
z"/>
<path fill="#000000" opacity="1.000000" stroke="none" 
	d="
M769.000000,359.531342 
	C768.336182,359.189850 767.188232,358.438446 767.081726,357.560669 
	C765.640259,345.678802 764.962646,333.668304 762.853638,321.912506 
	C760.236572,307.324951 756.795898,292.859741 753.119812,278.492981 
	C746.193359,251.424347 734.932922,226.012543 721.705627,201.533478 
	C711.207092,182.104523 699.387207,163.406448 684.978699,146.564468 
	C674.258240,134.033417 663.702759,121.254456 651.939087,109.745758 
	C630.326721,88.601807 606.345276,70.344894 580.193726,55.020870 
	C554.411682,39.913334 527.460022,27.324329 498.742004,19.070290 
	C481.715393,14.176559 464.307404,10.422857 446.882019,7.167640 
	C434.660522,4.884559 422.118561,4.323155 409.726685,2.930812 
	C409.013062,2.850631 408.362396,2.210447 407.841217,1.415442 
	C528.260193,1.000000 648.520325,1.000000 769.000000,1.000000 
	C769.000000,120.354141 769.000000,239.708405 769.000000,359.531342 
z"/>
<path fill="#000000" opacity="1.000000" stroke="none" 
	d="
M361.531342,0.999998 
	C360.887573,1.666035 359.794708,2.876581 358.659851,2.917280 
	C338.279877,3.648166 318.382141,7.393762 298.495483,11.664138 
	C264.241913,19.019608 232.078537,31.830549 201.398193,48.377163 
	C180.211975,59.803387 160.090027,73.031227 141.794846,88.783737 
	C131.286285,97.831825 120.705719,106.876106 110.974533,116.728973 
	C95.485817,132.411392 81.584427,149.498505 69.046944,167.676041 
	C55.940510,186.678467 44.560135,206.675522 35.156139,227.717010 
	C23.353254,254.126038 14.065248,281.455383 9.122103,310.014313 
	C6.386800,325.817474 5.002493,341.853851 2.953581,357.777954 
	C2.840222,358.658997 2.216452,359.474304 1.415128,360.160095 
	C1.000000,240.406052 1.000000,120.812119 1.000000,1.000000 
	C121.020805,1.000000 241.041748,1.000000 361.531342,0.999998 
z"/>
<path fill="#000000" opacity="1.000000" stroke="none" 
	d="
M411.468689,769.000000 
	C411.952698,768.334351 412.850433,767.192688 413.866425,767.075378 
	C426.423859,765.625549 439.094269,764.898743 451.541718,762.823242 
	C463.727203,760.791382 475.811371,757.861450 487.725403,754.552856 
	C512.306519,747.726501 536.130188,738.758850 558.812378,727.010986 
	C581.082031,715.476807 602.597290,702.609985 621.843628,686.461365 
	C636.242676,674.379883 650.630432,662.094482 663.562439,648.509399 
	C676.076172,635.363770 687.634338,621.069946 697.945801,606.130310 
	C709.398193,589.537659 720.029175,572.181213 729.113708,554.195557 
	C744.234192,524.259827 755.225159,492.641296 760.910583,459.466492 
	C763.591919,443.821014 765.003906,427.958527 767.046936,412.201599 
	C767.161316,411.319885 767.786926,410.504486 768.587280,409.829102 
	C769.000000,529.593628 769.000000,649.187256 769.000000,769.000000 
	C649.979187,769.000000 530.958252,769.000000 411.468689,769.000000 
z"/>
<path fill="#000000" opacity="1.000000" stroke="none" 
	d="
M0.999999,411.468658 
	C1.666139,412.105347 2.854507,413.179871 2.921767,414.320526 
	C4.459291,440.395203 9.315995,465.867157 16.461771,490.950012 
	C23.144016,514.405762 31.888113,537.066650 43.005547,558.757812 
	C54.437515,581.062683 67.353584,602.530273 83.474106,621.773865 
	C95.541992,636.179749 107.870033,650.509277 121.362190,663.548340 
	C143.342636,684.790588 167.959808,702.755371 194.573746,717.967346 
	C219.910675,732.449463 246.401321,744.260315 274.502838,751.995972 
	C292.067932,756.831299 310.003754,760.432983 327.912170,763.862732 
	C337.549133,765.708374 347.481201,766.005066 357.272583,767.069946 
	C357.984406,767.147278 358.634766,767.790405 359.156860,768.585205 
	C239.739594,769.000000 120.479187,769.000000 1.000000,769.000000 
	C1.000000,649.979187 1.000000,530.958252 0.999999,411.468658 
z"/>
<path fill="#000000" opacity="1.000000" stroke="none" 
	d="
M386.891724,278.000183 
	C358.879639,277.333282 331.338318,276.077362 303.804504,276.224304 
	C287.716705,276.310120 271.574463,278.103088 255.576538,280.092133 
	C235.947342,282.532623 216.381134,285.633392 196.909561,289.127838 
	C186.022369,291.081665 175.376892,294.390717 164.631546,297.124634 
	C146.158295,301.824799 126.413048,289.988739 122.032951,271.564301 
	C117.302856,251.667618 129.511185,232.924728 150.272430,228.026947 
	C163.099930,225.000824 175.808655,221.423248 188.710297,218.772751 
	C201.819550,216.079605 215.058777,213.923203 228.317032,212.077133 
	C242.770538,210.064621 257.303406,208.604614 271.818085,207.057816 
	C277.222595,206.481873 282.669403,206.156769 288.104034,206.036041 
	C307.036591,205.615463 325.974426,204.992584 344.905975,205.114044 
	C358.784119,205.203079 372.694885,205.895050 386.519958,207.120605 
	C403.503815,208.626175 420.403656,211.057449 437.357727,212.926224 
	C466.803894,216.171951 495.752960,222.170181 524.178894,230.213364 
	C545.606262,236.276291 566.682800,243.727005 587.576782,251.473663 
	C601.006104,256.452759 614.082581,262.581177 626.827209,269.145721 
	C636.658325,274.209534 646.866028,279.520020 654.876221,286.918762 
	C667.859863,298.911407 668.373535,317.384125 657.939880,331.523590 
	C646.631531,346.848480 627.439758,350.004974 611.704773,340.948914 
	C583.380981,324.647491 553.543213,311.621613 522.124207,302.734467 
	C500.507690,296.619995 478.539917,291.558411 456.496613,287.203217 
	C439.513428,283.847778 422.172882,282.289948 404.981812,280.003723 
	C399.124512,279.224762 393.238525,278.661865 386.891724,278.000183 
z"/>
<path fill="#000000" opacity="1.000000" stroke="none" 
	d="
M160.086304,411.024872 
	C152.300568,404.883362 146.926804,397.709167 146.999390,387.566406 
	C147.101379,373.315369 154.672073,362.751648 167.590805,359.145203 
	C185.154663,354.241974 202.839294,349.464447 220.760605,346.232849 
	C239.608185,342.834229 258.741791,340.581604 277.849579,339.184265 
	C298.828186,337.650146 319.929352,336.952179 340.959534,337.228119 
	C357.717285,337.448059 374.535858,339.004974 391.173431,341.158325 
	C425.033966,345.540802 458.377502,352.397217 491.114288,362.468811 
	C521.217529,371.730103 550.007263,383.872711 577.788818,398.495605 
	C586.270386,402.959930 594.649231,407.965363 602.112305,413.928070 
	C610.679871,420.773163 612.853699,430.733002 610.249390,441.189941 
	C607.258606,453.198364 599.395325,460.177307 587.118408,463.222107 
	C577.666077,465.566345 570.285217,461.696106 563.094177,457.383667 
	C544.000000,445.932922 524.161682,436.032043 503.168335,428.757751 
	C484.103638,422.151794 464.830475,415.985809 445.322083,410.874298 
	C430.206451,406.913757 414.670532,404.256592 399.167633,402.154663 
	C381.597534,399.772461 363.883362,398.208191 346.180664,397.121765 
	C330.449249,396.156281 314.608704,395.466461 298.885406,396.179108 
	C264.457825,397.739471 230.411850,402.516205 196.947433,411.043671 
	C189.542786,412.930511 182.067062,415.286743 174.537140,415.656494 
	C169.925293,415.882965 165.147949,412.739197 160.086304,411.024872 
z"/>
<path fill="#000000" opacity="1.000000" stroke="none" 
	d="
M525.711182,560.299072 
	C500.392456,545.715759 474.523193,533.256104 446.522675,525.860046 
	C430.320465,521.580322 414.073883,517.233643 397.603027,514.278503 
	C383.901794,511.820190 369.868683,510.927429 355.937469,510.113220 
	C341.370300,509.261871 326.726501,508.671082 312.157593,509.171295 
	C294.897888,509.763916 277.632996,511.198120 260.462311,513.098328 
	C244.875107,514.823303 229.390884,517.537781 213.901062,520.060425 
	C205.208405,521.476196 196.650162,523.777283 187.934753,524.978394 
	C176.878845,526.502014 165.284531,518.281860 163.277390,507.251984 
	C161.253174,496.128265 165.984116,484.132233 178.129532,480.614746 
	C190.944366,476.903381 204.162003,474.443451 217.321533,472.098206 
	C232.612823,469.373077 248.001175,467.126221 263.407684,465.139008 
	C272.546173,463.960266 281.790588,463.401001 291.005707,463.063354 
	C306.426758,462.498322 321.883667,461.678223 337.286285,462.176666 
	C354.049377,462.719086 370.787567,464.432251 387.501495,466.007965 
	C419.694427,469.043030 450.760681,477.055481 481.115143,487.974182 
	C503.165253,495.905762 524.280945,505.801880 544.535645,517.651062 
	C551.578247,521.771057 558.404358,525.659546 561.786743,533.501221 
	C567.901367,547.677185 556.400940,564.299377 542.205078,565.063721 
	C536.179810,565.388184 530.844421,564.063782 525.711182,560.299072 
z"/>
</svg>